<?xml version="1.0" encoding="UTF-8"?>
<svg width="72px" height="72px" viewBox="0 0 72 72" version="1.1" xmlns="http://www.w3.org/2000/svg" xmlns:xlink="http://www.w3.org/1999/xlink">
    <!-- Generator: Sketch 53.1 (72631) - https://sketchapp.com -->
    <title>Icons / 72 / Domain</title>
    <desc>Created with Sketch.</desc>
    <defs>
        <linearGradient x1="50%" y1="0%" x2="46.1674952%" y2="112.581231%" id="linearGradient-1">
            <stop stop-color="#FFFFFF" offset="0%"></stop>
            <stop stop-color="#FFFFFF" stop-opacity="0" offset="100%"></stop>
        </linearGradient>
        <path d="M17.1462651,42.0026716 C12.7279871,34.3499896 15.3499896,24.5645431 23.0026716,20.1462651 C30.6553536,15.7279871 40.4408001,18.3499896 44.8590781,26.0026716 C48.764662,32.7673414 47.1690662,41.1985244 41.460352,46.1159054 L50.1007478,61.0815099 C50.6530326,62.0380952 50.3252823,63.261276 49.368697,63.8135607 L47.6366462,64.8135607 C46.680061,65.3658455 45.4568801,65.0380952 44.9045954,64.0815099 L36.2641996,49.1159054 C29.1512656,51.6011064 21.051849,48.7673414 17.1462651,42.0026716 Z M40.5273607,39.5017534 C43.5644197,34.2414129 41.7620939,27.5150416 36.5017534,24.4779825 C31.2414129,21.4409235 24.5150416,23.2432493 21.4779825,28.5035898 C18.4409235,33.7639303 20.2432493,40.4903016 25.5035898,43.5273607 C30.7639303,46.5644197 37.4903016,44.7620939 40.5273607,39.5017534 Z" id="path-2"></path>
        <filter x="-36.8%" y="-23.4%" width="173.5%" height="155.2%" filterUnits="objectBoundingBox" id="filter-3">
            <feOffset dx="0" dy="2" in="SourceAlpha" result="shadowOffsetOuter1"></feOffset>
            <feGaussianBlur stdDeviation="4" in="shadowOffsetOuter1" result="shadowBlurOuter1"></feGaussianBlur>
            <feColorMatrix values="0 0 0 0 0   0 0 0 0 0   0 0 0 0 0  0 0 0 0.1 0" type="matrix" in="shadowBlurOuter1"></feColorMatrix>
        </filter>
    </defs>
    <g id="Icons-/-72-/-Domain" stroke="none" stroke-width="1" fill="none" fill-rule="evenodd">
        <path d="M48.4078576,60.794927 L39.8055629,46.5123787 C45.0043048,41.5073718 48.3159164,36.5065701 44.5073107,30.0288889 C39.993113,22.3511362 29.9952271,19.7205439 22.1764075,24.1532964 C14.3575878,28.586049 11.6786624,38.4035533 16.19286,46.0813059 C20.0014658,52.5589871 27.713477,55.4439927 34.7269503,53.525483 L39.0010795,60.794927 L9,60.794927 L9,14 L63,14 L63,60.794927 L48.4078576,60.794927 Z M11,4 L61,4 C62.1045695,4 63,4.8954305 63,6 L63,11 L9,11 L9,6 C9,4.8954305 9.8954305,4 11,4 Z M13,8.5 C13.5522847,8.5 14,8.05228475 14,7.5 C14,6.94771525 13.5522847,6.5 13,6.5 C12.4477153,6.5 12,6.94771525 12,7.5 C12,8.05228475 12.4477153,8.5 13,8.5 Z M17,8.5 C17.5522847,8.5 18,8.05228475 18,7.5 C18,6.94771525 17.5522847,6.5 17,6.5 C16.4477153,6.5 16,6.94771525 16,7.5 C16,8.05228475 16.4477153,8.5 17,8.5 Z M21,8.5 C21.5522847,8.5 22,8.05228475 22,7.5 C22,6.94771525 21.5522847,6.5 21,6.5 C20.4477153,6.5 20,6.94771525 20,7.5 C20,8.05228475 20.4477153,8.5 21,8.5 Z" id="Combined-Shape" fill="url(#linearGradient-1)" opacity="0.432700893"></path>
        <g id="Shape">
            <use fill="black" fill-opacity="1" filter="url(#filter-3)" xlink:href="#path-2"></use>
            <use fill="#FFFFFF" fill-rule="evenodd" xlink:href="#path-2"></use>
        </g>
    </g>
</svg>