<?xml version="1.0" encoding="UTF-8"?>
<svg width="72px" height="72px" viewBox="0 0 72 72" version="1.1" xmlns="http://www.w3.org/2000/svg" xmlns:xlink="http://www.w3.org/1999/xlink">
    <!-- Generator: Sketch 53.1 (72631) - https://sketchapp.com -->
    <title>Icons / 72 / Hosting</title>
    <desc>Created with Sketch.</desc>
    <defs>
        <linearGradient x1="50%" y1="0%" x2="46.9818428%" y2="112.581231%" id="linearGradient-1">
            <stop stop-color="#FFFFFF" offset="0%"></stop>
            <stop stop-color="#FFFFFF" stop-opacity="0" offset="100%"></stop>
        </linearGradient>
        <path d="M31.3633595,23.155354 L37.7401139,33.7516057 C37.8824998,33.9882084 37.8061221,34.2954394 37.5695193,34.4378254 C37.5187903,34.4683538 37.4630423,34.4896296 37.4048726,34.5006617 L31.50224,35.6201144 C30.9596275,35.7230225 30.6031767,36.2463204 30.7060848,36.788933 C30.7356593,36.9448727 30.8019277,37.091533 30.8994111,37.2167881 L45.2478875,55.6529567 C45.4174906,55.8708774 45.7316406,55.9100466 45.9495613,55.7404436 C46.0840236,55.6357945 46.1559389,55.4698757 46.1403785,55.3002012 L45.0084103,42.9569403 C44.9659324,42.4937505 45.2484268,42.0624298 45.6899995,41.9162699 L53.1122117,39.4595301 C54.1297791,39.1227169 54.7009161,38.0435906 54.4071854,37.0127615 L49.2091741,18.7706764 C48.9240242,17.7699614 47.9191797,17.1550773 46.8983383,17.3566305 L32.68959,20.1619816 C31.60594,20.3759356 30.900912,21.4278516 31.1148661,22.5115017 C31.1597626,22.7388969 31.2438453,22.9567572 31.3633595,23.155354 Z" id="path-2"></path>
        <filter x="-48.3%" y="-26.7%" width="198.5%" height="161.1%" filterUnits="objectBoundingBox" id="filter-3">
            <feOffset dx="0" dy="2" in="SourceAlpha" result="shadowOffsetOuter1"></feOffset>
            <feGaussianBlur stdDeviation="4" in="shadowOffsetOuter1" result="shadowBlurOuter1"></feGaussianBlur>
            <feColorMatrix values="0 0 0 0 0   0 0 0 0 0   0 0 0 0 0  0 0 0 0.1 0" type="matrix" in="shadowBlurOuter1"></feColorMatrix>
        </filter>
    </defs>
    <g id="Icons-/-72-/-Hosting" stroke="none" stroke-width="1" fill="none" fill-rule="evenodd">
        <path d="M40.6465562,40.2965845 C47.6996218,39.9642131 53.3829045,38.8843699 57.573,37.3926908 C59.72976,36.6559337 61.57656,35.7850209 63,34.789849 L63,42.609371 L63,43.1591897 L63,43.7090084 L63,45.1264411 C60.4042705,47.8854491 52.6464017,50.4632967 42.0966996,51.1982845 L39.7528511,41.559945 C39.6296056,41.0531365 39.9165851,40.536718 40.4120438,40.3737304 L40.6465562,40.2965845 Z M37.9623458,51.3854115 C37.3163427,51.3993452 36.6620766,51.4064707 36,51.4064707 C22.38552,51.4064707 12.07368,48.393464 9,45.1264411 L9,43.7090084 L9,43.1591897 L9,42.609371 L9,34.789849 C10.41372,35.7784231 12.24432,36.6427381 14.38272,37.3772959 C18.0778474,38.6983938 22.9402472,39.6987862 28.8848267,40.1462542 L37.9623458,51.3854115 Z M28.2712914,25.6527901 L32.1991109,32.1395152 C32.342142,32.3757285 32.2666028,32.6831668 32.0303895,32.8261979 C31.97919,32.8572 31.92284,32.8787574 31.8640216,32.8898439 L25.8356726,34.0261092 C25.2929446,34.1284064 24.9359048,34.6513026 25.038202,35.1940307 C25.068802,35.3563759 25.1391461,35.5086111 25.242948,35.6371314 L25.8551274,36.3950897 C17.3844838,35.3590494 11.2512227,33.102043 9,30.7090943 L9,29.2916617 L9,28.7418429 L9,28.1920242 L9,20.3725022 C12.9825116,23.1571395 20.3238569,24.9479846 28.2712914,25.6527901 Z M46.3121982,25.382566 C53.2428688,24.5442087 59.4539508,22.8524672 63,20.3725022 L63,28.1920242 L63,28.7418429 L63,29.2916617 L63,30.710194 C61.0089686,32.8258024 55.9813966,34.8356135 48.9858728,35.9890106 C49.0864303,35.5216249 49.0764293,35.0238082 48.9358294,34.533416 L46.3121982,25.382566 Z M45.3975395,22.1923674 L43.8847286,16.9158995 C43.5985405,15.9177164 42.5960495,15.30459 41.5770821,15.5045361 L26.9997356,18.3649658 C25.9158362,18.5776532 25.2095794,19.6287445 25.4222668,20.7126438 C25.4674017,20.9426606 25.5526203,21.1629524 25.6740321,21.3634619 L26.1442549,22.1400266 C17.4928991,21.1249422 11.2727266,18.8476952 9,16.4325012 L9,14.4465559 L9,13.8967372 C9,13.6966032 9.06696,13.5195615 9.15876,13.3579148 C10.40832,8.6404701 19.71684,4 36,4 C52.3242,4 61.64244,8.66356248 62.8542,13.3931032 C62.93952,13.5459528 63,13.7119981 63,13.8967372 L63,14.4465559 L63,16.4325012 C60.6881485,18.890139 54.287659,21.2049388 45.3975395,22.1923674 Z M9,49.085136 C13.46472,52.2861806 22.66632,54.8043504 36,54.8043504 C49.3326,54.8043504 58.5342,52.2883799 63,49.0873353 L63,58.1032628 C63,58.2956994 62.9514,58.4771396 62.865,58.6354874 C61.5474,63.9984193 50.15448,68 36,68 C21.81312,68 10.40184,63.9819247 9.12636,58.5991993 C9.04644,58.4496486 9,58.2814041 9,58.1032628 L9,49.085136 Z" id="Combined-Shape" fill="url(#linearGradient-1)" opacity="0.432700893"></path>
        <g id="Path-11">
            <use fill="black" fill-opacity="1" filter="url(#filter-3)" xlink:href="#path-2"></use>
            <use fill="#FFFFFF" fill-rule="evenodd" xlink:href="#path-2"></use>
        </g>
    </g>
</svg>