<?xml version="1.0" encoding="UTF-8"?>
<svg width="72px" height="72px" viewBox="0 0 72 72" version="1.1" xmlns="http://www.w3.org/2000/svg" xmlns:xlink="http://www.w3.org/1999/xlink">
    <!-- Generator: Sketch 53.1 (72631) - https://sketchapp.com -->
    <title>Icons / 72 / SSL </title>
    <desc>Created with Sketch.</desc>
    <defs>
        <linearGradient x1="50%" y1="0%" x2="46.9777857%" y2="112.581231%" id="linearGradient-1">
            <stop stop-color="#FFFFFF" offset="0%"></stop>
            <stop stop-color="#FFFFFF" stop-opacity="0" offset="100%"></stop>
        </linearGradient>
        <path d="M38.1058063,41.6677346 L33.1058063,41.6677346 C32.5535215,41.6677346 32.1058063,41.2200194 32.1058063,40.6677346 L32.1058063,36.6677346 C32.1058063,36.1154499 32.5535215,35.6677346 33.1058063,35.6677346 L38.1058063,35.6677346 L38.1058063,17.6677346 C38.1058063,17.1154499 38.5535215,16.6677346 39.1058063,16.6677346 L43.1058063,16.6677346 C43.658091,16.6677346 44.1058063,17.1154499 44.1058063,17.6677346 L44.1058063,40.6677346 C44.1058063,41.2200194 43.658091,41.6677346 43.1058063,41.6677346 L38.1058063,41.6677346 Z" id="path-2"></path>
        <filter x="-108.3%" y="-44.0%" width="316.7%" height="204.0%" filterUnits="objectBoundingBox" id="filter-3">
            <feOffset dx="0" dy="2" in="SourceAlpha" result="shadowOffsetOuter1"></feOffset>
            <feGaussianBlur stdDeviation="4" in="shadowOffsetOuter1" result="shadowBlurOuter1"></feGaussianBlur>
            <feColorMatrix values="0 0 0 0 0   0 0 0 0 0   0 0 0 0 0  0 0 0 0.1 0" type="matrix" in="shadowBlurOuter1"></feColorMatrix>
        </filter>
    </defs>
    <g id="Icons-/-72-/-SSL-" stroke="none" stroke-width="1" fill="none" fill-rule="evenodd">
        <path d="M10.4318233,11.575756 L35.4318233,4.16834864 C35.8026403,4.05847694 36.1973597,4.05847694 36.5681767,4.16834864 L61.5681767,11.575756 C62.4174162,11.8273826 63,12.6076188 63,13.4933523 L63,37.58568 C63,47.1129846 57.8314311,55.8903781 49.5,60.5117188 L36.9701255,67.4618835 C36.3666835,67.7966053 35.6333165,67.7966053 35.0298745,67.4618835 L22.5,60.5117188 C14.1685689,55.8903781 9,47.1129846 9,37.58568 L9,13.4933523 C9,12.6076188 9.58258377,11.8273826 10.4318233,11.575756 Z M33.0561021,45.8532685 C33.4473256,46.1400875 33.9999209,46.1066808 34.3535534,45.7530483 L50.6170094,29.4895924 C51.0075336,29.0990681 51.0075336,28.4659031 50.6170094,28.0753788 L47.7885822,25.2469517 C47.3980579,24.8564274 46.764893,24.8564274 46.3743687,25.2469517 L33.613961,38.0073593 L29.9497475,34.3431458 C29.5592232,33.9526215 28.9260582,33.9526215 28.5355339,34.3431458 L25.7071068,37.1715729 C25.3165825,37.5620972 25.3165825,38.1952621 25.7071068,38.5857864 L32.7781746,45.6568542 C32.8613692,45.7400489 32.9555757,45.8055203 33.0561021,45.8532685 Z" id="Combined-Shape" fill="url(#linearGradient-1)" opacity="0.432700893"></path>
        <g id="Combined-Shape" transform="translate(38.105806, 29.167735) rotate(-315.000000) translate(-38.105806, -29.167735) ">
            <use fill="black" fill-opacity="1" filter="url(#filter-3)" xlink:href="#path-2"></use>
            <use fill="#FFFFFF" fill-rule="evenodd" xlink:href="#path-2"></use>
        </g>
    </g>
</svg>