<svg xmlns="http://www.w3.org/2000/svg" xmlns:xlink="http://www.w3.org/1999/xlink" width="161" height="32" viewBox="0 0 161 32">
  <defs>
    <path id="full-a" d="M14.3536086,32 L0.412314449,17.4312235 C-0.137161351,16.8569049 -0.137478549,15.9254187 0.411605968,15.3506908 L0.412314449,15.3499498 L10.4656651,4.84326388 C10.3641775,5.50533928 10.3131948,6.18097858 10.3134292,6.86940232 C10.3145988,10.3041679 11.588319,13.9313872 14.0577723,17.761475 C16.0438362,20.8418326 16.9988594,23.561487 16.9996591,25.9100231 C17.000413,28.1237978 16.1513593,30.1177213 14.3536086,32 Z M21.6797089,25.8958376 C21.6791042,22.464208 20.4071423,18.840529 17.9405723,15.0143814 C15.9568272,11.9371927 15.0031224,9.22019287 15.0027089,6.87380102 C15.0023189,4.66013478 15.8523935,2.66634616 17.6520064,0.78402913 L16.9024255,6.03961325e-14 C16.9363731,0.0293944201 16.9693102,0.0607132199 17.0011045,0.0939563994 L31.5878565,15.3439094 C32.1372379,15.9183267 32.1374021,16.8498129 31.5882232,17.4244421 L21.5230203,27.9477118 C21.6273548,27.2774164 21.6798318,26.5931873 21.6797089,25.8958376 Z"/>
  </defs>
  <g fill="none" fill-rule="evenodd">
    <mask id="full-b" fill="#fff">
      <use xlink:href="#full-a"/>
    </mask>
    <use fill="#FF5C86" xlink:href="#full-a"/>
    <polygon fill="#7765D6" points="13.167 0 32 0 32 32 20.179 32 19.029 22.53 13.167 9.211" mask="url(#full-b)"/>
    <path fill="#312E55" fill-rule="nonzero" d="M50.0098805,27 C48.9060194,27 47.8992722,26.7187383 46.9896089,26.1562064 C46.0799456,25.5936745 45.35427,24.8470525 44.8125604,23.916318 C44.2708507,22.9855834 44,21.9576997 44,20.832636 L44,19.4211994 C44,19.3189209 44.0511039,19.2677824 44.1533133,19.2677824 L47.5875307,19.2677824 C47.6692982,19.2677824 47.7101813,19.3189209 47.7101813,19.4211994 L47.7101813,20.832636 C47.7101813,21.5076742 47.9350385,22.0855392 48.3847597,22.5662483 C48.8344809,23.0469573 49.3761824,23.2873082 50.0098805,23.2873082 C50.6435785,23.2873082 51.18528,23.0418435 51.6350012,22.5509066 C52.0847224,22.0599697 52.3095797,21.4872185 52.3095797,20.832636 C52.3095797,20.0757749 51.8189821,19.4212022 50.8377722,18.8688982 C50.5107022,18.6847968 49.9996631,18.3984213 49.3046394,18.0097629 C48.6096157,17.6211045 47.9554856,17.2529074 47.3422295,16.9051604 C46.2179265,16.2505779 45.3849327,15.4272481 44.843223,14.4351464 C44.3015134,13.4430448 44.0306627,12.3231118 44.0306627,11.0753138 C44.0306627,9.92979437 44.3066238,8.90191064 44.8585544,7.9916318 C45.4104849,7.08135296 46.1412709,6.3603002 47.0509342,5.82845188 C47.9605976,5.29660357 48.9469031,5.0306834 50.0098805,5.0306834 C51.0932997,5.0306834 52.0898261,5.30171742 52.9994894,5.84379358 C53.9091527,6.38586975 54.6348283,7.11203636 55.1765379,8.0223152 C55.7182476,8.93259404 55.9890983,9.95025007 55.9890983,11.0753138 L55.9890983,13.5913529 C55.9890983,13.6731757 55.9482152,13.7140865 55.8664477,13.7140865 L52.4322303,13.7140865 C52.3504628,13.7140865 52.3095797,13.6731757 52.3095797,13.5913529 L52.278917,11.0753138 C52.278917,10.3593642 52.0540598,9.77638533 51.6043386,9.32635983 C51.1546174,8.87633434 50.6231367,8.65132497 50.0098805,8.65132497 C49.3761824,8.65132497 48.8344809,8.89167589 48.3847597,9.37238494 C47.9350385,9.85309399 47.7101813,10.4207313 47.7101813,11.0753138 C47.7101813,11.7503521 47.8532723,12.3128755 48.1394585,12.762901 C48.4256447,13.2129265 48.9469046,13.6424898 49.7032539,14.0516039 C49.8054633,14.112971 50.0047686,14.2203619 50.3011757,14.3737796 C50.5975829,14.5271974 50.9195375,14.7010683 51.2670494,14.8953975 C51.6145612,15.0897267 51.9262951,15.2584837 52.2022604,15.4016736 C52.4782256,15.5448636 52.6468686,15.6369129 52.7081942,15.6778243 C53.7302878,16.250584 54.5377297,16.9511814 55.130544,17.7796374 C55.7233583,18.6080934 56.019761,19.6257494 56.019761,20.832636 C56.019761,21.9986111 55.7489102,23.0469503 55.2072006,23.9776848 C54.665491,24.9084193 53.9398154,25.6448137 53.0301521,26.1868898 C52.1204887,26.728966 51.1137416,27 50.0098805,27 Z M64.4519913,27 C63.3481302,27 62.341383,26.7187383 61.4317197,26.1562064 C60.5220564,25.5936745 59.7912704,24.8470525 59.2393398,23.916318 C58.6874093,22.9855834 58.4114481,21.9576997 58.4114481,20.832636 L58.4421108,11.1059972 C58.4421108,9.98093347 58.7129615,8.9581636 59.2546712,8.0376569 C59.7963808,7.11715021 60.5271668,6.3807559 61.447051,5.82845188 C62.3669353,5.27614787 63.368572,5 64.4519913,5 C65.5558524,5 66.5574891,5.27614787 67.4569315,5.82845188 C68.3563739,6.3807559 69.0769391,7.11715021 69.6186487,8.0376569 C70.1603584,8.9581636 70.4312091,9.98093347 70.4312091,11.1059972 L70.4618718,20.832636 C70.4618718,21.9576997 70.191021,22.9855834 69.6493114,23.916318 C69.1076018,24.8470525 68.3819262,25.5936745 67.4722628,26.1562064 C66.5625995,26.7187383 65.5558524,27 64.4519913,27 Z M64.4519913,23.2873082 C65.0652475,23.2873082 65.6018386,23.0367296 66.0617807,22.5355649 C66.5217228,22.0344001 66.7516904,21.4667628 66.7516904,20.832636 L66.7210278,11.1059972 C66.7210278,10.430959 66.5063913,9.85820784 66.077112,9.38772664 C65.6478327,8.91724544 65.1061312,8.68200837 64.4519913,8.68200837 C63.8182932,8.68200837 63.2765917,8.91213159 62.8268705,9.37238494 C62.3771493,9.83263828 62.1522921,10.4105033 62.1522921,11.1059972 L62.1522921,20.832636 C62.1522921,21.5076742 62.3771493,22.0855392 62.8268705,22.5662483 C63.2765917,23.0469573 63.8182932,23.2873082 64.4519913,23.2873082 Z M73.5281373,26.693166 C73.4463698,26.693166 73.4054867,26.6420275 73.4054867,26.539749 L73.466812,5.46025105 C73.466812,5.37842823 73.5076952,5.33751743 73.5894627,5.33751743 L77.3303066,5.33751743 C77.4120741,5.33751743 77.4836196,5.37842823 77.5449452,5.46025105 L80.3352469,9.51046025 L83.1255485,5.46025105 C83.1868741,5.37842823 83.2584196,5.33751743 83.3401871,5.33751743 L87.1116937,5.33751743 C87.1934612,5.33751743 87.2343444,5.37842823 87.2343444,5.46025105 L87.2956697,26.539749 C87.2956697,26.6420275 87.2547865,26.693166 87.1730191,26.693166 L83.708139,26.693166 C83.6263715,26.693166 83.5854884,26.6420275 83.5854884,26.539749 L83.5548257,10.8912134 L80.3352469,15.5550907 L77.1463307,10.8912134 L77.115668,26.539749 C77.115668,26.6420275 77.0747849,26.693166 76.9930174,26.693166 L73.5281373,26.693166 Z M90.6072365,26.693166 C90.525469,26.693166 90.4845859,26.6420275 90.4845859,26.539749 L90.5459112,5.46025105 C90.5459112,5.37842823 90.5867943,5.33751743 90.6685618,5.33751743 L94.4094058,5.33751743 C94.4911733,5.33751743 94.5627188,5.37842823 94.6240444,5.46025105 L97.414346,9.51046025 L100.204648,5.46025105 C100.265973,5.37842823 100.337519,5.33751743 100.419286,5.33751743 L104.190793,5.33751743 C104.27256,5.33751743 104.313444,5.37842823 104.313444,5.46025105 L104.374769,26.539749 C104.374769,26.6420275 104.333886,26.693166 104.252118,26.693166 L100.787238,26.693166 C100.705471,26.693166 100.664588,26.6420275 100.664588,26.539749 L100.633925,10.8912134 L97.414346,15.5550907 L94.2254299,10.8912134 L94.1947672,26.539749 C94.1947672,26.6420275 94.1538841,26.693166 94.0721166,26.693166 L90.6072365,26.693166 Z M107.686336,26.693166 C107.604568,26.693166 107.563685,26.6420275 107.563685,26.539749 L107.594348,5.46025105 C107.594348,5.37842823 107.635231,5.33751743 107.716998,5.33751743 L117.559711,5.33751743 C117.641478,5.33751743 117.682361,5.38865593 117.682361,5.49093445 L117.682361,8.92747559 C117.682361,9.00929841 117.641478,9.05020921 117.559711,9.05020921 L111.273866,9.05020921 L111.273866,13.8368201 L117.559711,13.8368201 C117.641478,13.8368201 117.682361,13.8777309 117.682361,13.9595537 L117.713024,17.4267782 C117.713024,17.5086011 117.672141,17.5495119 117.590373,17.5495119 L111.273866,17.5495119 L111.273866,22.9191074 L117.590373,22.9191074 C117.672141,22.9191074 117.713024,22.9702459 117.713024,23.0725244 L117.713024,26.5704324 C117.713024,26.6522552 117.672141,26.693166 117.590373,26.693166 L107.686336,26.693166 Z M121.177904,26.693166 C121.096137,26.693166 121.055254,26.6420275 121.055254,26.539749 L121.116579,5.46025105 C121.116579,5.37842823 121.157462,5.33751743 121.239229,5.33751743 L127.433086,5.33751743 C128.536947,5.33751743 129.553915,5.60855145 130.48402,6.15062762 C131.414125,6.69270378 132.155132,7.41887039 132.707063,8.32914923 C133.258993,9.23942808 133.534954,10.2673118 133.534954,11.4128312 C133.534954,12.1696923 133.422526,12.8498343 133.197665,13.4532775 C132.972805,14.0567208 132.707064,14.5681058 132.400436,14.9874477 C132.093808,15.4067896 131.817847,15.7187344 131.572544,15.9232915 C132.676405,17.1506338 133.228328,18.5927393 133.228328,20.2496513 L133.25899,26.539749 C133.25899,26.6420275 133.207886,26.693166 133.105677,26.693166 L129.640797,26.693166 C129.55903,26.693166 129.518146,26.6624829 129.518146,26.6011158 L129.518146,20.2496513 C129.518146,19.513246 129.257516,18.8740148 128.736249,18.3319386 C128.214981,17.7898625 127.576182,17.5188285 126.819833,17.5188285 L124.796097,17.5188285 L124.765435,26.539749 C124.765435,26.6420275 124.724552,26.693166 124.642784,26.693166 L121.177904,26.693166 Z M124.796097,13.8368201 L127.433086,13.8368201 C128.066784,13.8368201 128.628927,13.601583 129.119532,13.1311018 C129.610137,12.6606206 129.855436,12.0878695 129.855436,11.4128312 C129.855436,10.7582487 129.615247,10.1957253 129.134863,9.72524407 C128.654479,9.25476287 128.087226,9.0195258 127.433086,9.0195258 L124.796097,9.0195258 L124.796097,13.8368201 Z M141.936522,27 C140.812219,27 139.795251,26.7187383 138.885588,26.1562064 C137.975924,25.5936745 137.255359,24.8419387 136.723871,23.9009763 C136.192382,22.9600139 135.926641,21.9065609 135.926641,20.7405858 L135.957304,11.167364 C135.957304,10.0423003 136.217934,9.01441656 136.739202,8.08368201 C137.26047,7.15294746 137.975924,6.40632545 138.885588,5.84379358 C139.795251,5.28126172 140.812219,5 141.936522,5 C143.060825,5 144.072682,5.27614787 144.972125,5.82845188 C145.871567,6.3807559 146.587022,7.12226406 147.118511,8.05299861 C147.649999,8.98373315 147.91574,10.0218446 147.91574,11.167364 L147.91574,12.5788006 C147.91574,12.6606234 147.874857,12.7015342 147.793089,12.7015342 L144.358872,12.7015342 C144.277104,12.7015342 144.236221,12.6606234 144.236221,12.5788006 L144.236221,11.167364 C144.236221,10.4923258 144.016474,9.90934695 143.576974,9.41841004 C143.137474,8.92747314 142.590662,8.68200837 141.936522,8.68200837 C141.200615,8.68200837 140.638471,8.93258699 140.250076,9.43375174 C139.86168,9.9349165 139.667485,10.5127815 139.667485,11.167364 L139.667485,20.7405858 C139.667485,21.4974468 139.887232,22.1111088 140.326733,22.58159 C140.766233,23.0520712 141.302824,23.2873082 141.936522,23.2873082 C142.590662,23.2873082 143.137474,23.0265019 143.576974,22.5048815 C144.016474,21.983261 144.236221,21.3951683 144.236221,20.7405858 L144.236221,19.3291492 C144.236221,19.2473264 144.277104,19.2064156 144.358872,19.2064156 L147.823752,19.2064156 C147.905519,19.2064156 147.946402,19.2473264 147.946402,19.3291492 L147.946402,20.7405858 C147.946402,21.9065609 147.675552,22.9600139 147.133842,23.9009763 C146.592132,24.8419387 145.871567,25.5936745 144.972125,26.1562064 C144.072682,26.7187383 143.060825,27 141.936522,27 Z M150.92068,26.693166 C150.838913,26.693166 150.798029,26.6420275 150.798029,26.539749 L150.828692,5.46025105 C150.828692,5.37842823 150.869575,5.33751743 150.951343,5.33751743 L160.794055,5.33751743 C160.875823,5.33751743 160.916706,5.38865593 160.916706,5.49093445 L160.916706,8.92747559 C160.916706,9.00929841 160.875823,9.05020921 160.794055,9.05020921 L154.508211,9.05020921 L154.508211,13.8368201 L160.794055,13.8368201 C160.875823,13.8368201 160.916706,13.8777309 160.916706,13.9595537 L160.947368,17.4267782 C160.947368,17.5086011 160.906485,17.5495119 160.824718,17.5495119 L154.508211,17.5495119 L154.508211,22.9191074 L160.824718,22.9191074 C160.906485,22.9191074 160.947368,22.9702459 160.947368,23.0725244 L160.947368,26.5704324 C160.947368,26.6522552 160.906485,26.693166 160.824718,26.693166 L150.92068,26.693166 Z"/>
  </g>
</svg>
