<svg xmlns="http://www.w3.org/2000/svg" xmlns:xlink="http://www.w3.org/1999/xlink" width="40" height="40" viewBox="0 0 40 40">
  <defs>
    <path id="symbol-a" d="M17.9420107,40 L0.515393061,21.7890293 C-0.171451688,21.0711311 -0.171848186,19.9067734 0.514507459,19.1883636 L0.515393061,19.1874373 L13.0820813,6.05407985 C12.9552219,6.88167409 12.8914935,7.72622323 12.8917865,8.5867529 C12.8932486,12.8802099 14.4853987,17.414234 17.5722154,22.2018438 C20.0547953,26.0522908 21.2485742,29.4518587 21.2495739,32.3875288 C21.2505162,35.1547472 20.1891991,37.6471516 17.9420107,40 Z M27.0996361,32.369797 C27.0988802,28.08026 25.5089279,23.5506613 22.4257153,18.7679767 C19.946034,14.9214909 18.753903,11.5252411 18.7533862,8.59225128 C18.7528986,5.82516848 19.8154919,3.3329327 22.065008,0.980036412 L21.1280319,6.03961325e-14 C21.1704664,0.0367430251 21.2116378,0.0758915248 21.2513806,0.117445499 L39.4848207,19.1798867 C40.1715474,19.8979084 40.1717526,21.0622662 39.4852789,21.7805526 L26.9037753,34.9346397 C27.0341935,34.0967705 27.0997897,33.2414841 27.0996361,32.369797 Z"/>
  </defs>
  <g fill="none" fill-rule="evenodd">
    <mask id="symbol-b" fill="#fff">
      <use xlink:href="#symbol-a"/>
    </mask>
    <use fill="#FF5C86" xlink:href="#symbol-a"/>
    <polygon fill="#7765D6" points="16.459 0 40 0 40 40 25.224 40 23.786 28.162 16.459 11.514" mask="url(#symbol-b)"/>
  </g>
</svg>
