<?xml version="1.0" encoding="UTF-8"?>
<svg width="24px" height="24px" viewBox="0 0 24 24" version="1.1" xmlns="http://www.w3.org/2000/svg" xmlns:xlink="http://www.w3.org/1999/xlink">
    <!-- Generator: Sketch 53.1 (72631) - https://sketchapp.com -->
    <title>Icons / 24 / Arrow right</title>
    <desc>Created with Sketch.</desc>
    <g id="Icons-/-24-/-Arrow-right" stroke="none" stroke-width="1" fill="none" fill-rule="evenodd">
        <path d="M16.6568542,11 L13.767767,8.1109127 C13.5725048,7.91565056 13.5725048,7.59906807 13.767767,7.40380592 L14.4748737,6.69669914 C14.6701359,6.501437 14.9867184,6.501437 15.1819805,6.69669914 L20.131728,11.6464466 C20.3269901,11.8417088 20.3269901,12.1582912 20.131728,12.3535534 L19.7781746,12.7071068 L15.1819805,17.3033009 C14.9867184,17.498563 14.6701359,17.498563 14.4748737,17.3033009 L13.767767,16.5961941 C13.5725048,16.4009319 13.5725048,16.0843494 13.767767,15.8890873 L16.6568542,13 L4.5,13 C4.22385763,13 4,12.7761424 4,12.5 L4,11.5 C4,11.2238576 4.22385763,11 4.5,11 L16.6568542,11 Z" id="Combined-Shape" fill="#7765D6"></path>
    </g>
</svg>