<?xml version="1.0" encoding="UTF-8"?>
<svg width="40px" height="40px" viewBox="0 0 40 40" version="1.1" xmlns="http://www.w3.org/2000/svg" xmlns:xlink="http://www.w3.org/1999/xlink">
    <!-- Generator: Sketch 53.1 (72631) - https://sketchapp.com -->
    <title>Button / Menu / Closed</title>
    <desc>Created with Sketch.</desc>
    <g id="Button-/-Menu-/-Closed" stroke="none" stroke-width="1" fill="none" fill-rule="evenodd">
        <g id="Group-5" transform="translate(8.000000, 8.500000)" fill="#FF5C86">
            <path d="M1,0 L23,0 C23.5522847,-1.01453063e-16 24,0.44771525 24,1 L24,2 C24,2.55228475 23.5522847,3 23,3 L1,3 C0.44771525,3 6.76353751e-17,2.55228475 0,2 L0,1 C-6.76353751e-17,0.44771525 0.44771525,1.01453063e-16 1,0 Z M1,10 L23,10 C23.5522847,10 24,10.4477153 24,11 L24,12 C24,12.5522847 23.5522847,13 23,13 L1,13 C0.44771525,13 6.76353751e-17,12.5522847 0,12 L0,11 C-6.76353751e-17,10.4477153 0.44771525,10 1,10 Z M1,20 L23,20 C23.5522847,20 24,20.4477153 24,21 L24,22 C24,22.5522847 23.5522847,23 23,23 L1,23 C0.44771525,23 6.76353751e-17,22.5522847 0,22 L0,21 C-6.76353751e-17,20.4477153 0.44771525,20 1,20 Z" id="Combined-Shape"></path>
        </g>
    </g>
</svg>