<svg xmlns="http://www.w3.org/2000/svg" xmlns:xlink="http://www.w3.org/1999/xlink" width="24" height="24" viewBox="0 0 24 24">
    <defs>
        <path id="a" d="M12.138 20.138a8 8 0 1 1 0-16 8 8 0 0 1 0 16zm6-8a6 6 0 0 0-6-6c-.41.73-.672 1.296-.786 1.696-.171.6-.594 1.924.254 2.338.848.414 1.668-.809 2.402-.217.734.591.016.787.75 1.746.49.639 1.214.866 2.17.681l1.21-.244zm-6 6c-.15-3.088-2.006-1.64-2.736-2.3-.731-.659.342-1.043-.03-1.712-.23-.411-1-.16-1.19-1.11-.108-1.267-.778-1.33-2.044-.878a6 6 0 0 0 6 6zm2.594-.795c1.48 0 2.681-1.2 2.681-2.682-.761-.662-1.867-.124-2.217.174-.638.542-.108.93-.464 1.583-.356.652-.074.807 0 .925z"/>
    </defs>
    <g fill="none" fill-rule="evenodd">
        <mask id="b" fill="#fff">
            <use xlink:href="#a"/>
        </mask>
        <use fill="#BDBCC8" transform="rotate(1 12.138 12.138)" xlink:href="#a"/>
        <g fill="#BDBCC8" mask="url(#b)">
            <path d="M0 0h24v24H0z"/>
        </g>
    </g>
</svg>
