<svg xmlns="http://www.w3.org/2000/svg" xmlns:xlink="http://www.w3.org/1999/xlink" width="24" height="24" viewBox="0 0 24 24">
    <defs>
        <path id="a" d="M6.25 0v4A2.75 2.75 0 0 0 9 6.75h3V15a1 1 0 0 1-1 1H1a1 1 0 0 1-1-1V1a1 1 0 0 1 1-1h5.25zm1.5.185a1 1 0 0 1 .174.158l3.83 4.395a1 1 0 0 1 .235.512H9c-.69 0-1.25-.56-1.25-1.25V.185z"/>
    </defs>
    <g fill="none" fill-rule="evenodd" transform="translate(6 4)">
        <mask id="b" fill="#fff">
            <use xlink:href="#a"/>
        </mask>
        <use fill="#BDBCC8" xlink:href="#a"/>
        <g fill="#BDBCC8" mask="url(#b)">
            <path d="M-6-4h24v24H-6z"/>
        </g>
    </g>
</svg>
