<svg xmlns="http://www.w3.org/2000/svg" xmlns:xlink="http://www.w3.org/1999/xlink" width="100" height="100" viewBox="0 0 100 100">
    <defs>
        <linearGradient id="a" x1="50%" x2="50%" y1="100%" y2="41.365%">
            <stop offset="0%" stop-color="#ECECF0" stop-opacity="0"/>
            <stop offset="100%" stop-color="#E5E5E9"/>
        </linearGradient>
        <rect id="b" width="32" height="32" rx="4"/>
        <filter id="c" width="162.5%" height="162.5%" x="-31.2%" y="-25%" filterUnits="objectBoundingBox">
            <feOffset dy="2" in="SourceAlpha" result="shadowOffsetOuter1"/>
            <feGaussianBlur in="shadowOffsetOuter1" result="shadowBlurOuter1" stdDeviation="3"/>
            <feComposite in="shadowBlurOuter1" in2="SourceAlpha" operator="out" result="shadowBlurOuter1"/>
            <feColorMatrix in="shadowBlurOuter1" values="0 0 0 0 0 0 0 0 0 0 0 0 0 0 0 0 0 0 0.04 0"/>
        </filter>
        <rect id="e" width="32" height="32" rx="4"/>
    </defs>
    <g fill="none" fill-rule="evenodd">
        <g>
            <path stroke="url(#a)" d="M97.468.5H2.532C1.399.5.5 1.317.5 2.299V98A1.5 1.5 0 0 0 2 99.5h95.468c1.133 0 2.032-.817 2.032-1.799V2.3C99.5 1.317 98.6.5 97.468.5z"/>
            <g transform="translate(12 19)">
                <mask id="d" fill="#fff">
                    <use xlink:href="#b"/>
                </mask>
                <use fill="#000" filter="url(#c)" xlink:href="#b"/>
                <rect width="31" height="31" x=".5" y=".5" fill="#FFF" stroke="#E5E5E9" stroke-linejoin="square" rx="4"/>
                <path fill="#FF5C86" fill-rule="nonzero" d="M20.275 12.725a2.474 2.474 0 0 0-3.498 0l-.546.545a.333.333 0 0 1-.471 0l-.537-.537a2.474 2.474 0 0 0-3.498 3.498l4.035 4.037c.13.13.341.13.472 0l4.043-4.045a2.474 2.474 0 0 0 0-3.498z" mask="url(#d)"/>
                <rect width="38" height="4" x="37" y="1" fill="#E5E5E9" opacity=".5" rx="1"/>
                <rect width="28" height="4" x="37" y="8" fill="#E5E5E9" opacity=".3" rx="1"/>
                <rect width="17" height="6" x="37" y="16" fill="#7765D6" rx="1"/>
            </g>
            <g transform="translate(12 59)">
                <mask id="f" fill="#fff">
                    <use xlink:href="#e"/>
                </mask>
                <rect width="31" height="31" x=".5" y=".5" stroke="#F2F2F4" rx="4"/>
                <path fill="#E5E5E9" d="M20.275 12.725a2.474 2.474 0 0 0-3.498 0l-.546.545a.333.333 0 0 1-.471 0l-.537-.537a2.474 2.474 0 0 0-3.498 3.498l4.035 4.037c.13.13.341.13.472 0l4.043-4.045a2.474 2.474 0 0 0 0-3.498z" mask="url(#f)" opacity=".5"/>
                <rect width="38" height="4" x="37" y="1" fill="#E5E5E9" opacity=".5" rx="1"/>
                <rect width="28" height="4" x="37" y="8" fill="#E5E5E9" opacity=".3" rx="1"/>
                <rect width="17" height="6" x="37" y="16" fill="#E5E5E9" opacity=".5" rx="1"/>
            </g>
            <circle cx="15.5" cy="5.5" r="1.5" fill="#E5E5E9" opacity=".5"/>
            <circle cx="10.5" cy="5.5" r="1.5" fill="#E5E5E9" opacity=".5"/>
            <circle cx="5.5" cy="5.5" r="1.5" fill="#E5E5E9" opacity=".5"/>
        </g>
        <path fill="#E5E5E9" d="M0 10h100v1H0z"/>
    </g>
</svg>
