<svg xmlns="http://www.w3.org/2000/svg" xmlns:xlink="http://www.w3.org/1999/xlink" width="24" height="24" viewBox="0 0 24 24">
    <defs>
        <path id="a" d="M8.477 13.06h7.046a.5.5 0 0 1 .408.789l-3.522 4.997a.5.5 0 0 1-.818 0L8.07 13.85a.5.5 0 0 1 .408-.788zm7.046-2.12H8.477a.5.5 0 0 1-.408-.789l3.522-4.997a.5.5 0 0 1 .818 0l3.522 4.997a.5.5 0 0 1-.408.788z"/>
    </defs>
    <g fill="none" fill-rule="evenodd">
        <mask id="b" fill="#fff">
            <use xlink:href="#a"/>
        </mask>
        <use fill="#BDBCC8" xlink:href="#a"/>
        <g fill="#BDBCC8" mask="url(#b)">
            <path d="M0 0h24v24H0z"/>
        </g>
    </g>
</svg>
