<svg xmlns="http://www.w3.org/2000/svg" xmlns:xlink="http://www.w3.org/1999/xlink" width="24" height="24" viewBox="0 0 24 24">
    <defs>
        <path id="a" d="M10.101 11.049a5.19 5.19 0 0 1 1.148-5.537 5.1 5.1 0 0 1 7.25 0 5.188 5.188 0 0 1 0 7.3A5.101 5.101 0 0 1 13 13.97l-1.978 1.992a.978.978 0 0 1-.973.25.543.543 0 0 0-.685.408l-.154.71a.574.574 0 0 1-.704.435.55.55 0 0 0-.678.441l-.084.482a1.03 1.03 0 0 1-.809.835l-2.323.468A.513.513 0 0 1 4 19.484V17.62c0-.274.108-.537.3-.73l5.801-5.842zm4.993-2.173a1.5 1.5 0 1 0 2.121-2.122 1.5 1.5 0 0 0-2.12 2.122z"/>
    </defs>
    <g fill="none" fill-rule="evenodd">
        <mask id="b" fill="#fff">
            <use xlink:href="#a"/>
        </mask>
        <use fill="#BDBCC8" xlink:href="#a"/>
        <g fill="#BDBCC8" mask="url(#b)">
            <path d="M0 0h24v24H0z"/>
        </g>
    </g>
</svg>
