<svg xmlns="http://www.w3.org/2000/svg" xmlns:xlink="http://www.w3.org/1999/xlink" width="24" height="24" viewBox="0 0 24 24">
    <defs>
        <path id="a" d="M9.226 11.938c.877-.13 1.801-.195 2.774-.195.972 0 1.897.065 2.774.195a4.96 4.96 0 0 1 4.178 4.176l.029.195a3 3 0 0 1-2.598 3.42 35.609 35.609 0 0 1-8.766 0 3 3 0 0 1-2.598-3.42l.03-.195a4.96 4.96 0 0 1 4.177-4.176zM12 10.193a3.102 3.102 0 0 1-3.107-3.097C8.893 5.386 10.284 4 12 4a3.102 3.102 0 0 1 3.107 3.096c0 1.71-1.391 3.097-3.107 3.097z"/>
    </defs>
    <g fill="none" fill-rule="evenodd">
        <mask id="b" fill="#fff">
            <use xlink:href="#a"/>
        </mask>
        <use fill="#BDBCC8" xlink:href="#a"/>
        <g fill="#BDBCC8" mask="url(#b)">
            <path d="M0 0h24v24H0z"/>
        </g>
    </g>
</svg>
