<svg xmlns="http://www.w3.org/2000/svg" xmlns:xlink="http://www.w3.org/1999/xlink" width="24" height="24" viewBox="0 0 24 24">
    <defs>
        <path id="a" d="M9.032 13.485h9.826a.5.5 0 0 1 .5.5v1.005a.5.5 0 0 1-.5.5H8.152a1 1 0 0 1-.993-.875l-.447-3.563a1.013 1.013 0 0 1-.007-.046l-.14-1.126-.303-2.41h.002l-.117-.94H4.605a.5.5 0 0 1-.497-.449l-.105-1.03A.5.5 0 0 1 4.5 4.5l5.529.013.066.003H19a1 1 0 0 1 1 1v5.045a1 1 0 0 1-.972 1l-10.201.288.205 1.635zM8.781 19.5a1.507 1.507 0 0 1-1.512-1.504c0-.83.677-1.503 1.512-1.503.834 0 1.51.673 1.51 1.503 0 .83-.676 1.504-1.51 1.504zm7.051 0a1.507 1.507 0 0 1-1.51-1.504c0-.83.676-1.503 1.51-1.503.835 0 1.512.673 1.512 1.503 0 .83-.677 1.504-1.512 1.504z"/>
    </defs>
    <g fill="none" fill-rule="evenodd">
        <mask id="b" fill="#fff">
            <use xlink:href="#a"/>
        </mask>
        <use fill="#BDBCC8" xlink:href="#a"/>
        <g fill="#BDBCC8" mask="url(#b)">
            <path d="M0 0h24v24H0z"/>
        </g>
    </g>
</svg>
