<svg xmlns="http://www.w3.org/2000/svg" xmlns:xlink="http://www.w3.org/1999/xlink" width="24" height="24" viewBox="0 0 24 24">
    <defs>
        <path id="a" d="M12 20a8 8 0 1 1 0-16 8 8 0 0 1 0 16zm0-5a3 3 0 1 0 0-6 3 3 0 0 0 0 6zm2.687-.03a.8.8 0 0 0 0 1.131l.99.99a.8.8 0 0 0 1.131 0l.283-.283a.8.8 0 0 0 0-1.131l-.99-.99a.8.8 0 0 0-1.131 0l-.283.283zM6.909 7.192a.8.8 0 0 0 0 1.131l.99.99a.8.8 0 0 0 1.131 0l.283-.283a.8.8 0 0 0 0-1.131l-.99-.99a.8.8 0 0 0-1.131 0l-.283.283zm.283 9.9a.8.8 0 0 0 1.131 0l.99-.99a.8.8 0 0 0 0-1.132l-.283-.283a.8.8 0 0 0-1.131 0l-.99.99a.8.8 0 0 0 0 1.131l.283.283zm7.778-7.779a.8.8 0 0 0 1.131 0l.99-.99a.8.8 0 0 0 0-1.131l-.283-.283a.8.8 0 0 0-1.131 0l-.99.99a.8.8 0 0 0 0 1.131l.283.283z"/>
    </defs>
    <g fill="none" fill-rule="evenodd">
        <mask id="b" fill="#fff">
            <use xlink:href="#a"/>
        </mask>
        <use fill="#BDBCC8" xlink:href="#a"/>
        <g fill="#BDBCC8" mask="url(#b)">
            <path d="M0 0h24v24H0z"/>
        </g>
    </g>
</svg>
