<svg xmlns="http://www.w3.org/2000/svg" xmlns:xlink="http://www.w3.org/1999/xlink" width="40" height="40" viewBox="0 0 40 40">
    <defs>
        <path id="a" d="M17.942 40L.515 21.789a1.9 1.9 0 0 1 0-2.6v-.002L13.082 6.054c-.127.828-.19 1.672-.19 2.533.001 4.293 1.593 8.827 4.68 13.615 2.483 3.85 3.677 7.25 3.678 10.186 0 2.767-1.06 5.26-3.308 7.612zm9.158-7.63c-.001-4.29-1.591-8.82-4.674-13.602-2.48-3.847-3.672-7.243-3.673-10.176 0-2.767 1.062-5.26 3.312-7.612L21.128 0c.042.037.084.076.123.117L39.485 19.18a1.9 1.9 0 0 1 0 2.6L26.904 34.936c.13-.838.196-1.694.196-2.565z"/>
    </defs>
    <g fill="none" fill-rule="evenodd">
        <mask id="b" fill="#fff">
            <use xlink:href="#a"/>
        </mask>
        <use fill="#FF5C86" xlink:href="#a"/>
        <path fill="#7765D6" d="M16.459 0H40v40H25.224l-1.438-11.838-7.327-16.648z" mask="url(#b)"/>
    </g>
</svg>
