<?xml version="1.0" encoding="UTF-8"?>
<svg width="40px" height="40px" viewBox="0 0 40 40" version="1.1" xmlns="http://www.w3.org/2000/svg" xmlns:xlink="http://www.w3.org/1999/xlink">
    <!-- Generator: Sketch 53.1 (72631) - https://sketchapp.com -->
    <title>Button / Menu / Opened</title>
    <desc>Created with Sketch.</desc>
    <g id="Button-/-Menu-/-Opened" stroke="none" stroke-width="1" fill="none" fill-rule="evenodd">
        <path d="M29.6792576,27.3562358 C30.1069141,27.7838923 30.1069141,28.4772605 29.6792576,28.904917 L28.904917,29.6792576 C28.4772605,30.1069141 27.7838923,30.1069141 27.3562358,29.6792576 L20,22.3230218 L12.6437642,29.6792576 C12.2161077,30.1069141 11.5227395,30.1069141 11.095083,29.6792576 L10.3207424,28.904917 C9.89308587,28.4772605 9.89308587,27.7838923 10.3207424,27.3562358 L17.6769782,20 L10.3207424,12.6437642 C9.89308587,12.2161077 9.89308587,11.5227395 10.3207424,11.095083 L11.095083,10.3207424 C11.5227395,9.89308587 12.2161077,9.89308587 12.6437642,10.3207424 L20,17.6769782 L27.3562358,10.3207424 C27.7838923,9.89308587 28.4772605,9.89308587 28.904917,10.3207424 L29.6792576,11.095083 C30.1069141,11.5227395 30.1069141,12.2161077 29.6792576,12.6437642 L22.3230218,20 L29.6792576,27.3562358 Z" id="Path" fill="#FF5C86"></path>
    </g>
</svg>