<?xml version="1.0" encoding="UTF-8"?>
<svg width="540px" height="641px" viewBox="0 0 540 641" version="1.1" xmlns="http://www.w3.org/2000/svg" xmlns:xlink="http://www.w3.org/1999/xlink">
    <!-- Generator: Sketch 53.1 (72631) - https://sketchapp.com -->
    <title>Illustrations / Demo</title>
    <desc>Created with Sketch.</desc>
    <defs>
        <linearGradient x1="85.485965%" y1="72.5920377%" x2="14.514035%" y2="37.0986729%" id="linearGradient-1">
            <stop stop-color="#FFFFFF" offset="0%"></stop>
            <stop stop-color="#FFFFFF" stop-opacity="0" offset="100%"></stop>
        </linearGradient>
        <linearGradient x1="61.6737872%" y1="15.5120093%" x2="44.0999669%" y2="100%" id="linearGradient-2">
            <stop stop-color="#FFFFFF" offset="0%"></stop>
            <stop stop-color="#FFFFFF" stop-opacity="0" offset="100%"></stop>
        </linearGradient>
        <linearGradient x1="86.2763501%" y1="66.510549%" x2="0%" y2="66.510549%" id="linearGradient-3">
            <stop stop-color="#FFFFFF" offset="0%"></stop>
            <stop stop-color="#FFFFFF" stop-opacity="0" offset="100%"></stop>
        </linearGradient>
        <linearGradient x1="86.2763501%" y1="66.510549%" x2="0%" y2="66.510549%" id="linearGradient-4">
            <stop stop-color="#FFFFFF" offset="0%"></stop>
            <stop stop-color="#FFFFFF" stop-opacity="0" offset="100%"></stop>
        </linearGradient>
        <linearGradient x1="86.2763501%" y1="66.510549%" x2="0%" y2="66.510549%" id="linearGradient-5">
            <stop stop-color="#FFFFFF" offset="0%"></stop>
            <stop stop-color="#FFFFFF" stop-opacity="0" offset="100%"></stop>
        </linearGradient>
        <linearGradient x1="86.2763501%" y1="66.510549%" x2="0%" y2="66.510549%" id="linearGradient-6">
            <stop stop-color="#FFFFFF" offset="0%"></stop>
            <stop stop-color="#FFFFFF" stop-opacity="0" offset="100%"></stop>
        </linearGradient>
        <linearGradient x1="86.2763501%" y1="66.510549%" x2="0%" y2="66.510549%" id="linearGradient-7">
            <stop stop-color="#FFFFFF" offset="0%"></stop>
            <stop stop-color="#FFFFFF" stop-opacity="0" offset="100%"></stop>
        </linearGradient>
        <linearGradient x1="86.2763501%" y1="66.510549%" x2="0%" y2="66.510549%" id="linearGradient-8">
            <stop stop-color="#FFFFFF" offset="0%"></stop>
            <stop stop-color="#FFFFFF" stop-opacity="0" offset="100%"></stop>
        </linearGradient>
        <linearGradient x1="69.9557085%" y1="66.510549%" x2="25.7348485%" y2="62.8968298%" id="linearGradient-9">
            <stop stop-color="#FFFFFF" offset="0%"></stop>
            <stop stop-color="#FFFFFF" stop-opacity="0" offset="100%"></stop>
        </linearGradient>
        <linearGradient x1="86.2763501%" y1="66.510549%" x2="0%" y2="66.510549%" id="linearGradient-10">
            <stop stop-color="#FFFFFF" offset="0%"></stop>
            <stop stop-color="#FFFFFF" stop-opacity="0" offset="100%"></stop>
        </linearGradient>
        <linearGradient x1="86.2763501%" y1="66.510549%" x2="0%" y2="66.510549%" id="linearGradient-11">
            <stop stop-color="#FFFFFF" offset="0%"></stop>
            <stop stop-color="#FFFFFF" stop-opacity="0" offset="100%"></stop>
        </linearGradient>
        <linearGradient x1="86.2763501%" y1="66.510549%" x2="0%" y2="66.510549%" id="linearGradient-12">
            <stop stop-color="#FFFFFF" offset="0%"></stop>
            <stop stop-color="#FFFFFF" stop-opacity="0" offset="100%"></stop>
        </linearGradient>
        <linearGradient x1="86.2763501%" y1="66.510549%" x2="0%" y2="66.510549%" id="linearGradient-13">
            <stop stop-color="#FFFFFF" offset="0%"></stop>
            <stop stop-color="#FFFFFF" stop-opacity="0" offset="100%"></stop>
        </linearGradient>
        <linearGradient x1="100%" y1="44.2224042%" x2="24.7295673%" y2="58.3762429%" id="linearGradient-14">
            <stop stop-color="#FFFFFF" offset="0%"></stop>
            <stop stop-color="#FFFFFF" stop-opacity="0" offset="100%"></stop>
        </linearGradient>
        <linearGradient x1="-93.9296814%" y1="50%" x2="-93.9296814%" y2="-135.914857%" id="linearGradient-15">
            <stop stop-color="#FFFFFF" offset="0%"></stop>
            <stop stop-color="#FFFFFF" stop-opacity="0" offset="100%"></stop>
        </linearGradient>
        <linearGradient x1="-93.9296814%" y1="50%" x2="-93.9296814%" y2="-135.914857%" id="linearGradient-16">
            <stop stop-color="#FFFFFF" offset="0%"></stop>
            <stop stop-color="#FFFFFF" stop-opacity="0" offset="100%"></stop>
        </linearGradient>
        <linearGradient x1="86.2763501%" y1="66.510549%" x2="0%" y2="66.510549%" id="linearGradient-17">
            <stop stop-color="#FFFFFF" offset="0%"></stop>
            <stop stop-color="#FFFFFF" stop-opacity="0" offset="100%"></stop>
        </linearGradient>
    </defs>
    <g id="Illustrations-/-Demo" stroke="none" stroke-width="1" fill="none" fill-rule="evenodd">
        <g id="Image-demo">
            <path d="M1.31590918,0.0568027149 L230.453384,76.3504772 L538.631818,178.961651 C539.448829,179.233683 540,179.998122 540,180.85923 L540,639.994408 C540,640.546693 539.552285,640.994408 539,640.994408 C538.892631,640.994408 538.785962,640.977116 538.684091,640.943197 L0.684090818,461.810574 C0.275585723,461.674558 1.07078227e-13,461.292339 1.070255e-13,460.861785 L2.22044605e-16,1.00559215 C1.5440923e-16,0.453307398 0.44771525,0.00559214804 1,0.00559214804 C1.10736944,0.00559214804 1.2140382,0.022883724 1.31590918,0.0568027149 Z" id="Rectangle-Copy-3" fill="url(#linearGradient-1)" opacity="0.100000001"></path>
            <g id="Group-16" transform="translate(409.000000, 198.000000)">
                <path d="M1.30167893,0.411878717 L114.301679,36.1674662 C114.71743,36.2990187 115,36.6848079 115,37.1208758 L115,238 L0,238 L2.22044605e-16,1.36528829 C1.5440923e-16,0.813003544 0.44771525,0.365288294 1,0.365288294 C1.10235138,0.365288294 1.20409615,0.381001462 1.30167893,0.411878717 Z" id="Rectangle" fill="url(#linearGradient-2)" opacity="0.100000001"></path>
                <path d="M8.18058946,119.412777 L104.548389,150.005724 C104.963684,150.137564 105.24581,150.523129 105.24581,150.958848 L105.24581,156.902687 C105.24581,157.454972 104.798095,157.902687 104.24581,157.902687 C104.142608,157.902687 104.040028,157.886712 103.941714,157.855329 L7.56405646,127.090309 C7.14893106,126.957795 6.86740936,126.571721 6.86815364,126.135959 L6.87801184,120.364193 C6.87895514,119.811909 7.32743443,119.364959 7.87971838,119.365903 C7.98181354,119.366077 8.08327994,119.381885 8.18058946,119.412777 Z" id="Rectangle" fill="url(#linearGradient-3)" opacity="0.200000003"></path>
                <path d="M8.19179737,133.202047 L65.1713966,152.034507 C65.5809715,152.169876 65.8575805,152.552625 65.8575805,152.983991 L65.8575805,158.918228 C65.8575805,159.470513 65.4098652,159.918228 64.8575805,159.918228 C64.7500684,159.918228 64.6432597,159.900891 64.5412678,159.866883 L7.5518228,140.864738 C7.1429276,140.728399 6.86740068,140.345401 6.86813687,139.914375 L6.87798274,134.149823 C6.87892604,133.597539 7.32740534,133.150589 7.87968928,133.151532 C7.98574579,133.151714 8.09109829,133.168765 8.19179737,133.202047 Z" id="Rectangle-Copy-13" fill="url(#linearGradient-4)" opacity="0.100000001"></path>
                <path d="M8.19138507,146.969873 L83.0351074,171.670508 C83.4448935,171.80575 83.7217047,172.188603 83.7217047,172.620129 L83.7217047,178.555564 C83.7217047,179.107848 83.2739895,179.555564 82.7217047,179.555564 C82.6145435,179.555564 82.5080788,179.538339 82.4063843,179.504549 L7.55281635,154.632868 C7.14341342,154.496835 6.86740138,154.113585 6.86813823,153.682174 L6.87798382,147.917785 C6.87892712,147.365501 7.32740642,146.918551 7.87969036,146.919495 C7.98560084,146.919676 8.09081018,146.93668 8.19138507,146.969873 Z" id="Rectangle-Copy-14" fill="url(#linearGradient-5)" opacity="0.100000001"></path>
                <path d="M8.1861156,160.728695 L35.6703616,169.630206 C36.0828412,169.763799 36.3622421,170.14798 36.3622421,170.581554 L36.3622421,176.5161 C36.3622421,177.068385 35.9145268,177.5161 35.3622421,177.5161 C35.2558519,177.5161 35.1501434,177.499122 35.0491039,177.465808 L7.55500155,168.400434 C7.144483,168.265077 6.86740292,167.881275 6.86814122,167.449018 L6.87799756,161.678335 C6.87894086,161.126051 7.32742016,160.679101 7.8797041,160.680044 C7.98375029,160.680222 8.08713136,160.696636 8.1861156,160.728695 Z" id="Rectangle-Copy-15" fill="url(#linearGradient-6)" opacity="0.200000003"></path>
                <path d="M8.18827522,174.501282 L85.7474592,199.816163 C86.158836,199.950434 86.4371745,200.334071 86.4371745,200.766806 L86.4371745,206.704615 C86.4371745,207.2569 85.9894592,207.704615 85.4371745,207.704615 C85.3311356,207.704615 85.2257715,207.687749 85.1250309,207.65465 L7.55599752,182.168558 C7.14497099,182.033511 6.86740363,181.649458 6.86814259,181.216815 L6.87799195,175.450218 C6.87893525,174.897934 7.32741454,174.450984 7.87969849,174.451927 C7.98450826,174.452106 8.08863833,174.468761 8.18827522,174.501282 Z" id="Rectangle-Copy-16" fill="url(#linearGradient-7)" opacity="0.100000001"></path>
                <path d="M11.4415183,104.296254 L28.1953952,87.3645592 C28.383226,87.1747349 28.6391786,87.0679236 28.9062247,87.0679236 L55.3234335,87.0679236 C55.46241,87.0679236 55.5998608,87.0389552 55.7270164,86.9828666 L72.2967517,79.6739288 C72.5738682,79.5516923 72.8914529,79.5616382 73.1603776,79.7009752 L86.5683308,86.6479946 C87.0274011,86.8858512 87.5920948,86.7345414 87.8707322,86.2990157 L103.400306,62.025428 C103.697942,61.5602063 104.31636,61.4243513 104.781582,61.7219873 C105.069135,61.9059556 105.242978,62.2238984 105.242664,62.5652644 L105.172201,139.264287 C105.171693,139.816572 104.723567,140.263876 104.171282,140.263368 C104.067347,140.263273 103.964061,140.246975 103.865146,140.215061 L13.0566162,110.916478 C10.9541968,110.238151 9.79974211,107.98391 10.4780694,105.881491 C10.6705602,105.284882 11.000584,104.741868 11.4415183,104.296254 Z" id="Path" fill="url(#linearGradient-8)" opacity="0.300000012"></path>
            </g>
            <g id="Group-20" transform="translate(134.000000, 103.000000)">
                <path d="M0,0 L47.7644662,16.4502448 L257.544724,88.6992801 C257.948241,88.8382529 258.219092,89.2179981 258.219092,89.6447766 L258.219092,348.150133 L0,327.179597 L0,0 Z" id="Rectangle-Copy" fill="url(#linearGradient-9)" opacity="0.049999997"></path>
                <g id="Group-19" transform="translate(126.418359, 65.962440)">
                    <g id="Group-18" transform="translate(15.076535, 0.000000)">
                        <path d="M3.73960927,1.03885127 L100.297042,32.2395725 C100.70985,32.3729638 100.989567,32.7573084 100.989564,33.1911332 L100.989533,39.2910897 C100.98953,39.8433745 100.541812,40.2910874 99.9895274,40.2910845 C99.8845948,40.291084 99.7803162,40.2745678 99.6805192,40.2421422 L3.11314643,8.8659061 C2.7005319,8.73184125 2.42143097,8.34701263 2.42216123,7.91316519 L2.43213341,1.98872347 C2.43306303,1.4364395 2.88153125,0.98947849 3.43381522,0.990408109 C3.53764335,0.990582876 3.64081091,1.00692643 3.73960927,1.03885127 Z" id="Rectangle-Copy-17" fill="url(#linearGradient-10)" opacity="0.049999997" transform="translate(51.705862, 20.640746) rotate(1.000000) translate(-51.705862, -20.640746) "></path>
                        <path d="M3.46461774,16.7883902 L100.02205,47.9891114 C100.434859,48.1225026 100.714575,48.5068473 100.714573,48.9406721 L100.714541,55.0406286 C100.714538,55.5929134 100.266821,56.0406263 99.7145359,56.0406234 C99.6096033,56.0406228 99.5053246,56.0241067 99.4055277,55.9916811 L2.8381549,24.615445 C2.42554038,24.4813801 2.14643944,24.0965515 2.1471697,23.6627041 L2.15714188,17.7382624 C2.1580715,17.1859784 2.60653972,16.7390174 3.15882369,16.739947 C3.26265182,16.7401218 3.36581938,16.7564653 3.46461774,16.7883902 Z" id="Rectangle-Copy-18" fill="url(#linearGradient-10)" opacity="0.149999991" transform="translate(51.430871, 36.390284) rotate(1.000000) translate(-51.430871, -36.390284) "></path>
                        <path d="M2.28807564,35.7743326 L98.8215339,66.3926463 C99.2261864,66.5209933 99.5057017,66.8908437 99.5187281,67.3151631 L101.846817,143.150018 C101.863764,143.702043 101.429998,144.163286 100.877973,144.180233 C100.764613,144.183713 100.651488,144.167884 100.543437,144.133423 L3.9968466,113.341852 C3.59291888,113.213027 3.3141308,112.843489 3.3011649,112.419714 L0.986208497,36.7581163 C0.969318593,36.2060899 1.40313246,35.7448921 1.95515889,35.7280022 C2.06795033,35.7245512 2.18051232,35.7402159 2.28807564,35.7743326 Z" id="Rectangle-Copy-22" fill="url(#linearGradient-11)" opacity="0.049999997" transform="translate(51.416514, 89.954119) rotate(1.000000) translate(-51.416514, -89.954119) "></path>
                    </g>
                    <g id="Group-17" transform="translate(0.000000, 123.512713)">
                        <path d="M15.8964351,1.0372099 L112.43962,31.6586086 C112.849222,31.7885257 113.130032,32.1655973 113.137148,32.5952508 L115.70934,187.903275 C115.718486,188.455484 115.278246,188.910551 114.726037,188.919697 C114.617381,188.921497 114.509159,188.905573 114.405627,188.872554 L17.8491794,158.077839 C17.440318,157.947441 17.1602439,157.570706 17.153166,157.141612 L14.5942362,2.00690432 C14.5851276,1.45469469 15.0253979,0.999656327 15.5776075,0.99054769 C15.685707,0.988764601 15.7933804,1.0045232 15.8964351,1.0372099 Z" id="Rectangle-Copy-19" fill="url(#linearGradient-12)" opacity="0.049999997" transform="translate(65.151789, 94.955123) rotate(1.000000) translate(-65.151789, -94.955123) "></path>
                        <path d="M2.19274092,132.005251 L33.7444958,78.8247221 L48.4595557,86.5377529 C48.8517371,86.7433183 49.3324103,86.6664971 49.6409856,86.3489366 L64.072339,71.4973678 C64.2402083,71.3246104 64.4647957,71.2182537 64.7048142,71.1978496 L80.0270382,69.8953013 C80.2864987,69.8732445 80.5271225,69.7508506 80.6977468,69.5541437 L95.1478713,52.8950924 C95.5097551,52.4778891 96.1413299,52.4330438 96.5585332,52.7949275 C96.7777472,52.9850746 96.9035512,53.2610698 96.9032843,53.5512604 L96.8316017,131.509433 C96.8311161,132.037542 96.4200586,132.474235 95.892944,132.50663 L5.87821379,138.038717 C3.67323501,138.174229 1.77589183,136.496595 1.64037919,134.291617 C1.59119738,133.49136 1.78364,132.694791 2.19274092,132.005251 Z" id="Path-Copy" fill="url(#linearGradient-13)" opacity="0.100000001" transform="translate(49.242482, 95.289112) rotate(2.000000) translate(-49.242482, -95.289112) "></path>
                    </g>
                </g>
            </g>
            <g id="Group-21" transform="translate(144.000000, 64.000000)">
                <path d="M9.45616095,-2.27373675e-13 L378.554689,124.512987 C379.367873,124.787309 379.915398,125.549854 379.915398,126.408062 L379.915398,154.112086 C379.915398,154.664371 379.467683,155.112086 378.915398,155.112086 C378.808122,155.112086 378.701544,155.094824 378.599752,155.060963 L0,29.1188687 L9.45616095,-2.27373675e-13 Z" id="Rectangle" fill="url(#linearGradient-14)" opacity="0.100000001"></path>
                <ellipse id="Oval" fill="url(#linearGradient-15)" opacity="0.2" cx="362.82009" cy="135.047913" rx="8.36787565" ry="8.39240506"></ellipse>
                <path d="M106.220194,45.4698343 L139.978318,55.8635975 C140.397805,55.992753 140.684038,56.3803531 140.68406,56.8192726 L140.684365,62.7964499 C140.684393,63.3487346 140.236701,63.7964727 139.684416,63.7965009 C139.583173,63.7965061 139.482516,63.7811364 139.385887,63.7509175 L105.617853,53.1905307 C105.199898,53.0598222 104.915609,52.6723774 104.916333,52.2344611 L104.925937,46.4239074 C104.92685,45.8716234 105.375305,45.4246489 105.927589,45.4255618 C106.02678,45.4257257 106.125394,45.4406466 106.220194,45.4698343 Z" id="Rectangle-Copy-20" fill="url(#linearGradient-16)" opacity="0.1" transform="translate(122.800348, 54.611031) rotate(1.000000) translate(-122.800348, -54.611031) "></path>
                <path d="M60.5282993,30.466914 L94.2864237,40.8606773 C94.7059106,40.9898327 94.9921436,41.3774328 94.992166,41.8163523 L94.9924708,47.7935296 C94.992499,48.3458143 94.5448066,48.7935524 93.9925218,48.7935806 C93.8912785,48.7935858 93.7906214,48.7782161 93.693993,48.7479972 L59.925959,38.1876104 C59.5080038,38.0569019 59.2237143,37.6694571 59.2244381,37.2315408 L59.2340429,31.4209871 C59.2349558,30.8687031 59.6834105,30.4217286 60.2356945,30.4226415 C60.3348854,30.4228054 60.4334999,30.4377263 60.5282993,30.466914 Z" id="Rectangle-Copy-21" fill="url(#linearGradient-17)" opacity="0.100000001" transform="translate(77.108454, 39.608110) rotate(1.000000) translate(-77.108454, -39.608110) "></path>
            </g>
        </g>
    </g>
</svg>