<?xml version="1.0" encoding="UTF-8"?>
<svg width="24px" height="24px" viewBox="0 0 24 24" version="1.1" xmlns="http://www.w3.org/2000/svg" xmlns:xlink="http://www.w3.org/1999/xlink">
    <!-- Generator: Sketch 52.6 (67491) - http://www.bohemiancoding.com/sketch -->
    <title>Icons / 24 / Copy</title>
    <desc>Created with Sketch.</desc>
    <g id="Icons-/-24-/-Copy" stroke="none" stroke-width="1" fill="none" fill-rule="evenodd">
        <path d="M11.5,10 C10.9477153,10 10.5,10.4477153 10.5,11 L10.5,18 C10.5,18.5522847 10.9477153,19 11.5,19 L18.5,19 C19.0522847,19 19.5,18.5522847 19.5,18 L19.5,11 C19.5,10.4477153 19.0522847,10 18.5,10 L11.5,10 Z M11.5,9 L18.5,9 C19.6045695,9 20.5,9.8954305 20.5,11 L20.5,18 C20.5,19.1045695 19.6045695,20 18.5,20 L11.5,20 C10.3954305,20 9.5,19.1045695 9.5,18 L9.5,11 C9.5,9.8954305 10.3954305,9 11.5,9 Z M14.5,6.15771484 L14.5,6 C14.5,4.8954305 13.6045695,4 12.5,4 L5.5,4 C4.3954305,4 3.5,4.8954305 3.5,6 L3.5,13 C3.5,14.1045695 4.3954305,15 5.5,15 L6.55419922,15 L6.55419922,14 L5.5,14 C4.94771525,14 4.5,13.5522847 4.5,13 L4.5,6 C4.5,5.44771525 4.94771525,5 5.5,5 L12.5,5 C13.0522847,5 13.5,5.44771525 13.5,6 L13.5,6.15771484 L14.5,6.15771484 Z M14.5,6.15771484 L14.5,6 C14.5,4.8954305 13.6045695,4 12.5,4 L5.5,4 C4.3954305,4 3.5,4.8954305 3.5,6 L3.5,13 C3.5,14.1045695 4.3954305,15 5.5,15 L6.55419922,15 L6.55419922,14 L5.5,14 C4.94771525,14 4.5,13.5522847 4.5,13 L4.5,6 C4.5,5.44771525 4.94771525,5 5.5,5 L12.5,5 C13.0522847,5 13.5,5.44771525 13.5,6 L13.5,6.15771484 L14.5,6.15771484 Z M13.5,6 L14.5,6 L14.5,6.5 C14.5,6.77614237 14.2761424,7 14,7 C13.7238576,7 13.5,6.77614237 13.5,6.5 L13.5,6 Z M6.5,14 L7,14 C7.27614237,14 7.5,14.2238576 7.5,14.5 C7.5,14.7761424 7.27614237,15 7,15 L6.5,15 L6.5,14 Z" id="Combined-Shape" fill="#FFFFFF" fill-rule="nonzero"></path>
    </g>
</svg>