<?xml version="1.0" encoding="UTF-8"?>
<svg width="56px" height="56px" viewBox="0 0 56 56" version="1.1" xmlns="http://www.w3.org/2000/svg" xmlns:xlink="http://www.w3.org/1999/xlink">
    <!-- Generator: Sketch 52.6 (67491) - http://www.bohemiancoding.com/sketch -->
    <title>Shape@3x</title>
    <desc>Created with Sketch.</desc>
    <g id="Components" stroke="none" stroke-width="1" fill="none" fill-rule="evenodd">
        <g id="Empty" transform="translate(-568.000000, -188.000000)" fill="#C7CADA" fill-rule="nonzero">
            <path d="M617.91217,188 L582.249512,188 C581.796204,188 581.429199,188.367432 581.429199,188.820312 C581.429199,189.273193 581.796204,189.640625 582.249512,189.640625 L595.179688,189.640625 L595.179688,196.643616 C592.355164,197.043518 590.175781,199.477112 590.175781,202.410156 C590.175781,205.343201 592.355164,207.776794 595.179688,208.176697 L595.179688,215.179688 L587.414062,215.179688 C586.961182,215.179688 586.59375,215.547119 586.59375,216 C586.59375,218.306702 584.716858,220.183594 582.410156,220.183594 C580.103455,220.183594 578.226562,218.306702 578.226562,216 C578.226562,215.547119 577.859131,215.179688 577.40625,215.179688 L569.640625,215.179688 L569.640625,194.08783 C569.640625,191.635437 571.635437,189.640625 574.08783,189.640625 L578.968262,189.640625 C579.421143,189.640625 579.788574,189.273193 579.788574,188.820312 C579.788574,188.367432 579.421143,188 578.968262,188 L574.08783,188 C570.730957,188 568,190.730957 568,194.08783 L568,237.91217 C568,241.269043 570.730957,244 574.08783,244 L610.249512,244 C610.702393,244 611.069824,243.632568 611.069824,243.179688 C611.069824,242.726807 610.702393,242.359375 610.249512,242.359375 L596.820312,242.359375 L596.820312,235.356384 C599.644836,234.956482 601.824219,232.522888 601.824219,229.589844 C601.824219,226.656799 599.644836,224.223206 596.820312,223.823303 L596.820312,216.820312 L604.585938,216.820312 C605.038818,216.820312 605.40625,216.452881 605.40625,216 C605.40625,213.693298 607.283142,211.816406 609.589844,211.816406 C611.896545,211.816406 613.773438,213.693298 613.773438,216 C613.773438,216.452881 614.140869,216.820312 614.59375,216.820312 L622.359375,216.820312 L622.359375,237.91217 C622.359375,240.364563 620.364563,242.359375 617.91217,242.359375 L613.530762,242.359375 C613.077454,242.359375 612.710449,242.726807 612.710449,243.179688 C612.710449,243.632568 613.077454,244 613.530762,244 L617.91217,244 C621.269043,244 624,241.269043 624,237.91217 L624,194.08783 C624,190.730957 621.269043,188 617.91217,188 Z M600.183594,229.589844 C600.183594,231.896545 598.306702,233.773438 596,233.773438 C595.547119,233.773438 595.179688,234.140869 595.179688,234.59375 L595.179688,242.359375 L574.08783,242.359375 C571.635437,242.359375 569.640625,240.364563 569.640625,237.91217 L569.640625,216.820312 L576.643616,216.820312 C577.043518,219.644836 579.477112,221.824219 582.410156,221.824219 C585.343201,221.824219 587.776794,219.644836 588.176697,216.820312 L595.179688,216.820312 L595.179688,224.585938 C595.179688,225.038818 595.547119,225.40625 596,225.40625 C598.306702,225.40625 600.183594,227.283142 600.183594,229.589844 Z" id="Shape"></path>
        </g>
    </g>
</svg>