<?xml version="1.0" encoding="UTF-8"?>
<svg width="24px" height="24px" viewBox="0 0 24 24" version="1.1" xmlns="http://www.w3.org/2000/svg" xmlns:xlink="http://www.w3.org/1999/xlink">
    <!-- Generator: Sketch 52.6 (67491) - http://www.bohemiancoding.com/sketch -->
    <title>Icons / 24 / Add-link</title>
    <desc>Created with Sketch.</desc>
    <g id="Icons-/-24-/-Add-link" stroke="none" stroke-width="1" fill="none" fill-rule="evenodd">
        <rect fill="#1D212C" x="0" y="0" width="24" height="24"></rect>
        <g id="Group" transform="translate(3.000000, 8.000000)" fill="#fff" fill-rule="nonzero">
            <path d="M14,1 L11.5,1 C11.2238576,1 11,0.776142375 11,0.5 C11,0.223857625 11.2238576,5.07265313e-17 11.5,0 L14,0 C16.209139,-7.26691434e-16 18,2.01471863 18,4.5 C18,6.98528137 16.209139,9 14,9 L11.5,9 C11.2238576,9 11,8.77614237 11,8.5 C11,8.22385763 11.2238576,8 11.5,8 L14,8 C15.6289028,8 17,6.45751561 17,4.5 C17,2.54248439 15.6289028,1 14,1 Z M4,1 C2.37109723,1 1,2.54248439 1,4.5 C1,6.45751561 2.37109723,8 4,8 L4,9 C1.790861,9 3.22973971e-16,6.98528137 0,4.5 C-3.22973971e-16,2.01471863 1.790861,7.26691434e-16 4,0 L4,1 Z M4,0 L6.5,0 C6.77614237,-5.07265313e-17 7,0.223857625 7,0.5 C7,0.776142375 6.77614237,1 6.5,1 L4,1 L4,0 Z M4,8 L6.5,8 C6.77614237,8 7,8.22385763 7,8.5 C7,8.77614237 6.77614237,9 6.5,9 L4,9 L4,8 Z M5.5,4 L12.5,4 C12.7761424,4 13,4.22385763 13,4.5 C13,4.77614237 12.7761424,5 12.5,5 L5.5,5 C5.22385763,5 5,4.77614237 5,4.5 C5,4.22385763 5.22385763,4 5.5,4 Z" id="Combined-Shape"></path>
        </g>
    </g>
</svg>