<?xml version="1.0" encoding="UTF-8"?>
<svg width="24px" height="24px" viewBox="0 0 24 24" version="1.1" xmlns="http://www.w3.org/2000/svg" xmlns:xlink="http://www.w3.org/1999/xlink">
    <!-- Generator: Sketch 52.6 (67491) - http://www.bohemiancoding.com/sketch -->
    <title>Icons / 24 / Delete-block</title>
    <desc>Created with Sketch.</desc>
    <g id="Icons-/-24-/-Delete-block" stroke="none" stroke-width="1" fill="none" fill-rule="evenodd">
        <path d="M15.5,6.28571429 L18.5,6.28571429 C18.7761424,6.28571429 19,6.50957191 19,6.78571429 L19,6.92857143 C19,7.2047138 18.7761424,7.42857143 18.5,7.42857143 L17.8333333,7.42857143 L17.8333333,17.7142857 C17.8333333,18.9766509 16.7886644,20 15.5,20 L8.5,20 C7.21133558,20 6.16666667,18.9766509 6.16666667,17.7142857 L6.16666667,7.42857143 L5.5,7.42857143 C5.22385763,7.42857143 5,7.2047138 5,6.92857143 L5,6.78571429 C5,6.50957191 5.22385763,6.28571429 5.5,6.28571429 L8.5,6.28571429 L8.5,5.14285714 C8.5,4.51167457 9.02233446,4 9.66666667,4 L14.3333333,4 C14.9776655,4 15.5,4.51167457 15.5,5.14285714 L15.5,6.28571429 Z M14.3333333,6.28571429 L14.3333333,5.14285714 L9.66666667,5.14285714 L9.66666667,6.28571429 L14.3333333,6.28571429 Z M15.5,7.42857143 L8.5,7.42857143 L7.33333333,7.42857143 L7.33333333,17.7142857 C7.33333333,18.3454683 7.85566779,18.8571429 8.5,18.8571429 L15.5,18.8571429 C16.1443322,18.8571429 16.6666667,18.3454683 16.6666667,17.7142857 L16.6666667,7.42857143 L15.5,7.42857143 Z M10.1666667,10.8571429 L10.3333333,10.8571429 C10.6094757,10.8571429 10.8333333,11.0810005 10.8333333,11.3571429 L10.8333333,16.0714286 C10.8333333,16.3475709 10.6094757,16.5714286 10.3333333,16.5714286 L10.1666667,16.5714286 C9.89052429,16.5714286 9.66666667,16.3475709 9.66666667,16.0714286 L9.66666667,11.3571429 C9.66666667,11.0810005 9.89052429,10.8571429 10.1666667,10.8571429 Z M13.6666667,10.8571429 L13.8333333,10.8571429 C14.1094757,10.8571429 14.3333333,11.0810005 14.3333333,11.3571429 L14.3333333,16.0714286 C14.3333333,16.3475709 14.1094757,16.5714286 13.8333333,16.5714286 L13.6666667,16.5714286 C13.3905243,16.5714286 13.1666667,16.3475709 13.1666667,16.0714286 L13.1666667,11.3571429 C13.1666667,11.0810005 13.3905243,10.8571429 13.6666667,10.8571429 Z" id="Combined-Shape" fill="#FFFFFF"></path>
    </g>
</svg>