<svg xmlns="http://www.w3.org/2000/svg" xmlns:xlink="http://www.w3.org/1999/xlink" width="40" height="40" viewBox="0 0 40 40">
  <defs>
    <path id="change-email-a" d="M4.7236068,10.3618034 L11.5527864,13.7763932 C11.8343139,13.9171569 12.1656861,13.9171569 12.4472136,13.7763932 L19.2763932,10.3618034 C19.5233825,10.2383088 19.823719,10.3384209 19.9472136,10.5854102 C19.9819275,10.6548379 20,10.7313944 20,10.809017 L20,17 C20,17.5522847 19.5522847,18 19,18 L5,18 C4.44771525,18 4,17.5522847 4,17 L4,10.809017 C4,10.5328746 4.22385763,10.309017 4.5,10.309017 C4.57762255,10.309017 4.65417908,10.3270895 4.7236068,10.3618034 Z M4.5,6 L19.5,6 C19.7761424,6 20,6.22385763 20,6.5 L20,7.69098301 C20,7.88036903 19.8929988,8.05350059 19.7236068,8.1381966 L12.4472136,11.7763932 C12.1656861,11.9171569 11.8343139,11.9171569 11.5527864,11.7763932 L4.2763932,8.1381966 C4.10700119,8.05350059 4,7.88036903 4,7.69098301 L4,6.5 C4,6.22385763 4.22385763,6 4.5,6 Z"/>
  </defs>
  <g fill="none" fill-rule="evenodd">
    <circle cx="20" cy="20" r="20" fill="#FF5C86" opacity=".1"/>
    <g transform="translate(8 8)">
      <mask id="change-email-b" fill="#fff">
        <use xlink:href="#change-email-a"/>
      </mask>
      <use fill="#D8D8D8" xlink:href="#change-email-a"/>
      <g fill="#FF5C86" mask="url(#change-email-b)">
        <rect width="24" height="24"/>
      </g>
    </g>
  </g>
</svg>
