<svg xmlns="http://www.w3.org/2000/svg" xmlns:xlink="http://www.w3.org/1999/xlink" width="40" height="40" viewBox="0 0 40 40">
  <defs>
    <path id="edit-staff-a" d="M16.4092785,4.15823234 L19.4658695,7.29259382 C19.6552475,7.48679031 19.6552475,7.79656638 19.4658695,7.99076286 L8.04950834,19.6975969 C7.85878695,19.8931709 7.59635935,20.0022082 7.3232004,19.999374 L4.52347767,19.9703253 C4.25129419,19.9675013 4.03137517,19.7474704 4.02868951,19.4752855 L3.9999825,16.565907 C3.99737493,16.301637 4.09948675,16.0470802 4.28400088,15.8578714 L15.6933456,4.15823234 C15.8861397,3.96053292 16.2026972,3.95655633 16.4003966,4.14935039 C16.4033943,4.15227373 16.4063552,4.15523462 16.4092785,4.15823234 Z M14.3045985,17.9973904 L19.5,17.9973904 C19.7761424,17.9973904 20,18.221248 20,18.4973904 L20,19.5 C20,19.7761424 19.7761424,20 19.5,20 L14.3045985,20 C14.0284561,20 13.8045985,19.7761424 13.8045985,19.5 L13.8045985,18.4973904 C13.8045985,18.221248 14.0284561,17.9973904 14.3045985,17.9973904 Z"/>
  </defs>
  <g fill="none" fill-rule="evenodd">
    <circle cx="20" cy="20" r="20" fill="#FF5C86" opacity=".1"/>
    <g transform="translate(8 8)">
      <mask id="edit-staff-b" fill="#fff">
        <use xlink:href="#edit-staff-a"/>
      </mask>
      <use fill="#BDBCC8" xlink:href="#edit-staff-a"/>
      <g fill="#FF5C86" mask="url(#edit-staff-b)">
        <rect width="24" height="24"/>
      </g>
    </g>
  </g>
</svg>
