<svg xmlns="http://www.w3.org/2000/svg" xmlns:xlink="http://www.w3.org/1999/xlink" width="40" height="40" viewBox="0 0 40 40">
  <defs>
    <path id="set-password-a" d="M10.1010505,11.0488201 C9.38021673,9.1963018 9.76296972,7.00889093 11.2493094,5.51201947 C13.251151,3.49599351 16.4967773,3.49599351 18.4986189,5.51201947 C20.5004604,7.52804542 20.5004604,10.7966693 18.4986189,12.8126953 C17.0122791,14.3095667 14.8402585,14.6950318 13.0007743,13.9690904 L11.0225957,15.9612858 C10.7681951,16.2174889 10.395092,16.3131697 10.0500019,16.2107035 C9.76205383,16.1252042 9.45980257,16.2909753 9.37490483,16.5809637 C9.3712582,16.5934197 9.36805283,16.6060024 9.36529481,16.6186879 L9.21101295,17.3283079 C9.14321615,17.6401396 8.83724504,17.8375795 8.52760736,17.7693023 C8.52078385,17.7677977 8.51398819,17.7661677 8.50722376,17.7644133 C8.21319891,17.6881528 7.91345833,17.8663746 7.83773443,18.1624829 C7.83410157,18.1766887 7.83103076,18.1910343 7.82852928,18.2054858 L7.74520952,18.6868381 C7.67254124,19.106655 7.35122505,19.4383769 6.93629278,19.5219514 L4.61313342,19.9898755 C4.33552795,20.04579 4.06547551,19.8644794 4.00995442,19.5849069 C4.00333433,19.5515719 4,19.5176599 4,19.4836647 L4,17.6207644 C4,17.346936 4.10801259,17.0843228 4.30027623,16.8906969 L10.1010505,11.0488201 L10.1010505,11.0488201 Z M15.0941462,8.87576841 C15.6799326,9.46155484 16.6296801,9.46155484 17.2154666,8.87576841 C17.801253,8.28998197 17.801253,7.3402345 17.2154666,6.75444806 C16.6296801,6.16866163 15.6799326,6.16866163 15.0941462,6.75444806 C14.5083598,7.3402345 14.5083598,8.28998197 15.0941462,8.87576841 Z"/>
  </defs>
  <g fill="none" fill-rule="evenodd">
    <circle cx="20" cy="20" r="20" fill="#FF5C86" opacity=".1"/>
    <g transform="translate(8 8)">
      <mask id="set-password-b" fill="#fff">
        <use xlink:href="#set-password-a"/>
      </mask>
      <use fill="#BDBCC8" xlink:href="#set-password-a"/>
      <g fill="#FF5C86" mask="url(#set-password-b)">
        <rect width="24" height="24"/>
      </g>
    </g>
  </g>
</svg>
