<svg xmlns="http://www.w3.org/2000/svg" xmlns:xlink="http://www.w3.org/1999/xlink" width="40" height="40" viewBox="0 0 40 40">
  <defs>
    <path id="icon-popup-a" d="M18.9185221,4.08770038 C18.8472995,4.02020333 18.7459423,4.0045436 18.6600351,4.04759493 L3.35360034,11.9723727 C3.2700369,12.0143388 3.2162253,12.104421 3.21522082,12.203961 C3.21421634,12.3035011 3.26625813,12.3948237 3.34900841,12.4387019 L6.88807091,14.2478966 C6.9686209,14.2906379 7.06466862,14.2809733 7.13660875,14.2228824 L12.4504207,11.1068209 L9.23783053,15.2379808 C9.189998,15.2911618 9.16560341,15.3639822 9.17086498,15.4378878 L9.13612275,19.3743295 C9.14353679,19.4784176 9.20811071,19.5674145 9.29990134,19.600026 C9.32443942,19.6087086 9.34964717,19.6129465 9.37456792,19.6129465 C9.44292061,19.6129465 9.50940783,19.5812653 9.55566189,19.5233812 L11.7108292,17.0148847 L14.5929784,18.5028175 C14.6555433,18.5351189 14.7279618,18.5364626 14.7915312,18.5065903 C14.8551007,18.4766662 14.9035072,18.418472 14.9242665,18.3470471 L18.9889794,4.3593941 C19.0173919,4.2617146 18.9896969,4.15519743 18.9185221,4.08770038 Z"/>
  </defs>
  <g fill="none" fill-rule="evenodd">
    <circle cx="20" cy="20" r="20" fill="#FF5C86" opacity=".1"/>
    <g transform="translate(8 8)">
      <mask id="icon-popup-b" fill="#fff">
        <use xlink:href="#icon-popup-a"/>
      </mask>
      <use fill="#000" fill-rule="nonzero" xlink:href="#icon-popup-a"/>
      <g fill="#FF5C86" mask="url(#icon-popup-b)">
        <rect width="24" height="24"/>
      </g>
    </g>
  </g>
</svg>
